<?xml version="1.0" encoding="UTF-8"?>
<svg id="Layer_1" xmlns="http://www.w3.org/2000/svg" version="1.1" viewBox="0 0 200 200">
  <!-- Generator: Adobe Illustrator 30.0.0, SVG Export Plug-In . SVG Version: 2.1.1 Build 123)  -->
  <path d="M97.74,10.4c.75,1.33.82,7.94.12,9.05l-8.59,3.35c-3.34-.26-2.96-13.23-1.62-15.96,1.29-2.56,9.82,3.09,10.09,3.56Z"/>
  <path d="M150.81,73.99l-9.57,32.75,14.19,83.72c-11.37,2.64-41.56,12.75-48.1-.29-2.74-5.46-1.03-13.76-6.04-17.11,1.94,34.79-28.41,22.39-50.21,17.76l3.84-35.34c-6.78,3.69-13.82,6.67-21.42,3.37-.04-45.05-1.92-91.83,7.46-136.39,2.64-6.58,31.27-13.58,38.72-17.2,2.55,27.88,14.61,53.59,23.21,79.9l4.81-10.34c6.81-22.69,16.72-45.65,17.55-69.53l39.11,16c11.71,44.74,4.55,90.9,8.9,136.41-7.17,4.48-16.36,2.4-22.46-3.01v-80.69ZM54.94,73.99v79.89l9.48-48.63-9.48-31.26Z"/>
  <path d="M107.95,19.41c-3.9-6.32,2.94-12.22,8.52-14.08,3.1.17,3.25,13.35,1.64,15.99-1.71,2.8-9.75-1.25-10.16-1.9Z"/>
</svg>