<?xml version="1.0" encoding="UTF-8"?>
<svg id="Layer_1" xmlns="http://www.w3.org/2000/svg" version="1.1" viewBox="0 0 200 200">
  <!-- Generator: Adobe Illustrator 30.0.0, SVG Export Plug-In . SVG Version: 2.1.1 Build 123)  -->
  <path d="M84.1,2.92c-1.87,3.27-3.54,5.49-1.59,9.24,13.15-.27,15.54,9.89,16.04,21.07l7.11-18.14,11.04-3.42-.83-8.76,10.11,2.89c1.89,2-15.38,23.47-13.87,28.91.85,3.08,19.45,23.85,23.13,28.97,11.78,16.39,22.2,34.15,31.93,51.84,3.81,6.92,24.4,44.81,23.2,49.19-1.37,5-13.58,13.8-18.33,16.4-33.26,18.19-105.21,18.06-139.46,2.57-7.24-3.27-23.58-12.47-23.7-21.16-.07-5.03,26.91-54.26,31.64-62.38,5.6-9.62,11.52-19.21,17.84-28.37,4.06-5.89,27.75-34.35,28.4-36.71,1.79-6.5-11.62-20.5-12.8-27.13-.57-3.2,7.9-4.46,10.13-5.02Z"/>
</svg>