<?xml version="1.0" encoding="UTF-8"?>
<svg id="Layer_1" xmlns="http://www.w3.org/2000/svg" version="1.1" viewBox="0 0 200 200">
  <!-- Generator: Adobe Illustrator 30.0.0, SVG Export Plug-In . SVG Version: 2.1.1 Build 123)  -->
  <path d="M100.48,4.5C47.66,4.5,4.69,47.47,4.69,100.29s42.97,95.79,95.79,95.79,95.79-42.97,95.79-95.79S153.3,4.5,100.48,4.5ZM100.48,29.5c14.56,0,28.1,4.42,39.36,11.99l-98.17,98.17c-7.56-11.26-11.99-24.81-11.99-39.36,0-39.03,31.76-70.79,70.79-70.79ZM100.48,171.08c-14.83,0-28.61-4.59-39.99-12.42l98.36-98.36c7.83,11.39,12.42,25.16,12.42,39.99,0,39.03-31.76,70.79-70.79,70.79Z"/>
</svg>